<?xml version="1.0" standalone="no"?>
<!DOCTYPE svg PUBLIC "-//W3C//DTD SVG 20010904//EN"
 "http://www.w3.org/TR/2001/REC-SVG-20010904/DTD/svg10.dtd">
<svg version="1.0" xmlns="http://www.w3.org/2000/svg"
 width="500.000000pt" height="500.000000pt" viewBox="0 0 500.000000 500.000000"
 preserveAspectRatio="xMidYMid meet">
<metadata>
Created by potrace 1.11, written by Peter Selinger 2001-2013
</metadata>
<g transform="translate(0.000000,500.000000) scale(0.100000,-0.100000)"
fill="#000000" stroke="none">
<path d="M0 2500 l0 -2500 2500 0 2500 0 0 2500 0 2500 -2500 0 -2500 0 0
-2500z m2655 1204 c227 -31 374 -85 467 -172 86 -81 123 -162 138 -306 9 -84
12 -95 55 -158 26 -37 63 -82 82 -99 34 -29 37 -30 46 -13 26 50 102 104 145
104 33 0 55 -36 60 -98 3 -48 0 -63 -20 -92 -36 -54 -101 -85 -173 -84 -66 1
-106 17 -172 71 -42 34 -42 34 -47 11 -42 -203 -123 -471 -182 -605 l-23 -53
-153 0 c-107 0 -158 4 -166 12 -8 8 -12 57 -12 154 l0 141 -139 1 -138 1 -7
-61 c-3 -33 -6 -101 -6 -149 0 -77 -2 -90 -19 -99 -29 -15 -303 -13 -324 3
-16 11 -29 74 -79 367 l-13 75 -97 6 c-54 4 -104 9 -113 12 -21 9 -28 -29 -23
-123 8 -130 52 -170 86 -77 11 28 27 53 35 55 19 4 113 -53 121 -74 10 -27
-15 -113 -47 -161 -39 -57 -92 -86 -169 -91 -82 -6 -134 16 -198 84 -125 132
-213 444 -214 764 l-1 155 37 75 c45 91 105 161 195 228 251 184 633 254 1068
196z m-1244 -2169 l114 -166 3 166 c2 157 3 165 22 165 19 0 20 -7 20 -195 l0
-195 -23 0 c-19 0 -46 32 -138 165 l-114 165 -5 -163 c-4 -144 -7 -162 -22
-165 -17 -3 -18 11 -18 192 l0 196 23 0 c19 0 46 -32 138 -165z m1987 68 c3
-28 7 -32 35 -35 44 -4 43 -32 -1 -36 l-33 -3 3 -92 3 -92 33 -3 c20 -2 32 -9
32 -18 0 -12 -10 -14 -42 -12 -56 4 -68 28 -68 136 0 81 0 82 -25 82 -18 0
-25 5 -25 20 0 15 7 20 25 20 22 0 25 4 25 36 0 28 3 35 18 32 11 -2 18 -14
20 -35z m-1544 -58 c28 -26 46 -64 46 -96 0 -18 -8 -19 -105 -19 -99 0 -105
-1 -105 -20 0 -12 11 -32 25 -45 31 -32 91 -34 128 -5 21 17 26 18 37 5 18
-22 -43 -55 -104 -55 -41 0 -53 5 -81 33 -41 41 -53 93 -33 145 29 77 136 109
192 57z m158 -80 c22 -55 42 -102 44 -104 4 -4 16 23 58 137 17 42 34 72 42
72 20 0 19 -3 -34 -136 -36 -89 -53 -119 -66 -119 -13 0 -30 31 -67 119 -27
65 -49 123 -49 128 0 5 7 8 16 6 10 -2 31 -41 56 -103z m407 74 c17 -17 31
-34 31 -39 0 -4 3 -22 6 -39 l7 -31 -107 0 c-100 0 -106 -1 -106 -20 0 -12 11
-32 25 -45 31 -32 91 -34 128 -5 21 17 26 18 37 5 18 -21 -42 -55 -98 -55 -63
0 -97 22 -117 74 -20 53 -15 101 17 141 26 33 51 44 105 44 33 1 47 -5 72 -30z
m141 10 l0 -20 26 20 c31 25 74 28 74 6 0 -9 -9 -15 -23 -15 -13 0 -34 -11
-47 -25 -21 -22 -24 -38 -28 -115 -3 -68 -8 -90 -18 -90 -11 0 -14 26 -14 130
0 109 2 130 15 130 9 0 15 -9 15 -21z m180 1 c0 -11 3 -20 6 -20 3 0 17 9 31
20 25 20 76 26 108 14 32 -12 45 -59 45 -159 0 -74 -3 -95 -14 -95 -10 0 -15
23 -18 99 -2 62 -9 105 -17 115 -21 26 -78 20 -106 -10 -21 -23 -25 -37 -27
-112 -3 -73 -6 -87 -20 -90 -16 -3 -18 8 -18 121 0 68 3 127 7 130 12 13 23 7
23 -13z m493 -19 c29 -28 32 -37 32 -92 0 -57 -2 -62 -37 -95 -31 -28 -45 -34
-83 -34 -87 0 -139 51 -137 137 1 79 57 126 140 120 44 -3 59 -9 85 -36z m474
22 c27 -18 53 -68 53 -103 0 -19 -6 -20 -105 -20 -96 0 -105 -2 -105 -19 0
-10 12 -30 26 -45 32 -32 89 -35 125 -7 13 10 30 16 37 14 42 -15 -34 -63
-100 -63 -89 0 -145 83 -116 173 24 75 121 112 185 70z"/>
<path d="M1881 3495 c-35 -13 -75 -35 -89 -48 -23 -24 -24 -28 -13 -72 30
-121 137 -322 222 -418 43 -49 93 -82 109 -72 22 13 40 112 40 214 -1 172 -40
336 -95 395 -31 34 -86 34 -174 1z"/>
<path d="M2961 3476 c-12 -14 -5 -46 9 -46 23 0 77 -62 102 -118 21 -46 33
-62 46 -60 50 10 -1 136 -80 199 -55 43 -61 45 -77 25z"/>
<path d="M1531 3215 c-40 -34 -56 -84 -41 -130 43 -131 240 -103 240 35 0 101
-122 159 -199 95z"/>
<path d="M3112 3181 c-8 -5 -16 -35 -19 -69 -5 -52 -3 -63 11 -68 28 -11 41
13 41 78 0 61 -8 75 -33 59z"/>
<path d="M3256 3002 c-6 -35 -3 -40 41 -81 100 -92 194 -105 271 -37 17 15 22
30 22 68 0 26 -3 48 -7 48 -5 0 -22 -9 -40 -20 -37 -22 -57 -54 -50 -81 6 -23
-8 -28 -51 -18 -42 9 -93 49 -141 109 l-39 49 -6 -37z"/>
<path d="M1725 2854 c-16 -14 -70 -52 -118 -84 -77 -52 -84 -60 -60 -60 45 0
142 28 195 57 53 29 62 55 31 92 l-18 20 -30 -25z"/>
<path d="M1716 1514 c-45 -46 -36 -54 59 -54 77 0 85 2 85 19 0 28 -47 61 -85
61 -22 0 -41 -9 -59 -26z"/>
<path d="M2276 1515 c-48 -44 -36 -55 59 -55 95 0 106 10 60 55 -32 33 -83 33
-119 0z"/>
<path d="M3069 1511 c-63 -63 -20 -171 68 -171 49 0 78 21 93 65 14 43 -1 97
-33 120 -37 26 -94 19 -128 -14z"/>
<path d="M3576 1514 c-45 -46 -36 -54 59 -54 76 0 85 2 85 18 0 30 -42 62 -82
62 -25 0 -43 -8 -62 -26z"/>
</g>
</svg>
